<mxfile host="app.diagrams.net" agent="Mozilla/5.0 (Windows NT 10.0; Win64; x64) AppleWebKit/537.36 (KHTML, like Gecko) Chrome/137.0.0.0 Safari/537.36 Edg/137.0.0.0" version="27.1.6">
  <diagram name="Page-1" id="BfGiqsl0Fv9TYorapudZ">
    <mxGraphModel dx="1617" dy="833" grid="1" gridSize="10" guides="1" tooltips="1" connect="1" arrows="1" fold="1" page="1" pageScale="1" pageWidth="850" pageHeight="1100" math="0" shadow="0">
      <root>
        <mxCell id="0" />
        <mxCell id="1" parent="0" />
        <mxCell id="_WOZBsmZgHntIw0R4y1R-16" value="Feedback Database" style="strokeWidth=2;html=1;shape=mxgraph.flowchart.stored_data;whiteSpace=wrap;" parent="1" vertex="1">
          <mxGeometry x="490" y="350" width="100" height="60" as="geometry" />
        </mxCell>
        <mxCell id="_WOZBsmZgHntIw0R4y1R-17" value="User" style="rounded=0;whiteSpace=wrap;html=1;" parent="1" vertex="1">
          <mxGeometry x="700" y="680" width="60" height="60" as="geometry" />
        </mxCell>
        <mxCell id="_WOZBsmZgHntIw0R4y1R-22" value="Exercise" style="strokeWidth=2;html=1;shape=mxgraph.flowchart.start_2;whiteSpace=wrap;" parent="1" vertex="1">
          <mxGeometry x="800" y="470" width="90" height="90" as="geometry" />
        </mxCell>
        <mxCell id="_WOZBsmZgHntIw0R4y1R-23" style="edgeStyle=orthogonalEdgeStyle;rounded=0;orthogonalLoop=1;jettySize=auto;html=1;exitX=0.5;exitY=0;exitDx=0;exitDy=0;entryX=0.5;entryY=1;entryDx=0;entryDy=0;entryPerimeter=0;curved=1;" parent="1" source="_WOZBsmZgHntIw0R4y1R-17" target="_WOZBsmZgHntIw0R4y1R-22" edge="1">
          <mxGeometry relative="1" as="geometry" />
        </mxCell>
        <mxCell id="_WOZBsmZgHntIw0R4y1R-24" value="Exercise Feedback" style="edgeLabel;html=1;align=center;verticalAlign=middle;resizable=0;points=[];" parent="_WOZBsmZgHntIw0R4y1R-23" vertex="1" connectable="0">
          <mxGeometry x="-0.3317" y="2" relative="1" as="geometry">
            <mxPoint x="-3" y="-13" as="offset" />
          </mxGeometry>
        </mxCell>
        <mxCell id="_WOZBsmZgHntIw0R4y1R-27" value="Scales and Arepeggios" style="strokeWidth=2;html=1;shape=mxgraph.flowchart.stored_data;whiteSpace=wrap;" parent="1" vertex="1">
          <mxGeometry x="1310" y="260" width="100" height="60" as="geometry" />
        </mxCell>
        <mxCell id="_WOZBsmZgHntIw0R4y1R-28" value="Chords" style="strokeWidth=2;html=1;shape=mxgraph.flowchart.stored_data;whiteSpace=wrap;" parent="1" vertex="1">
          <mxGeometry x="1090" y="30" width="100" height="60" as="geometry" />
        </mxCell>
        <mxCell id="_WOZBsmZgHntIw0R4y1R-29" value="Exercise Generation" style="strokeWidth=2;html=1;shape=mxgraph.flowchart.start_2;whiteSpace=wrap;" parent="1" vertex="1">
          <mxGeometry x="800" y="200" width="90" height="90" as="geometry" />
        </mxCell>
        <mxCell id="_WOZBsmZgHntIw0R4y1R-30" style="edgeStyle=orthogonalEdgeStyle;rounded=0;orthogonalLoop=1;jettySize=auto;html=1;exitX=0.93;exitY=0.5;exitDx=0;exitDy=0;exitPerimeter=0;entryX=0.001;entryY=0.459;entryDx=0;entryDy=0;entryPerimeter=0;curved=1;" parent="1" source="_WOZBsmZgHntIw0R4y1R-16" target="_WOZBsmZgHntIw0R4y1R-29" edge="1">
          <mxGeometry relative="1" as="geometry">
            <mxPoint x="583" y="370" as="sourcePoint" />
            <mxPoint x="800" y="235" as="targetPoint" />
          </mxGeometry>
        </mxCell>
        <mxCell id="_WOZBsmZgHntIw0R4y1R-31" value="Feedback in database" style="edgeLabel;html=1;align=center;verticalAlign=middle;resizable=0;points=[];" parent="_WOZBsmZgHntIw0R4y1R-30" vertex="1" connectable="0">
          <mxGeometry x="-0.4274" y="2" relative="1" as="geometry">
            <mxPoint x="5" y="-48" as="offset" />
          </mxGeometry>
        </mxCell>
        <mxCell id="_WOZBsmZgHntIw0R4y1R-33" style="edgeStyle=orthogonalEdgeStyle;rounded=0;orthogonalLoop=1;jettySize=auto;html=1;exitX=0.023;exitY=0.329;exitDx=0;exitDy=0;exitPerimeter=0;entryX=0.5;entryY=0;entryDx=0;entryDy=0;entryPerimeter=0;curved=1;" parent="1" source="_WOZBsmZgHntIw0R4y1R-28" target="_WOZBsmZgHntIw0R4y1R-29" edge="1">
          <mxGeometry relative="1" as="geometry" />
        </mxCell>
        <mxCell id="_WOZBsmZgHntIw0R4y1R-39" value="Chord Data" style="edgeLabel;html=1;align=center;verticalAlign=middle;resizable=0;points=[];" parent="_WOZBsmZgHntIw0R4y1R-33" vertex="1" connectable="0">
          <mxGeometry x="0.3109" relative="1" as="geometry">
            <mxPoint x="92" y="-10" as="offset" />
          </mxGeometry>
        </mxCell>
        <mxCell id="_WOZBsmZgHntIw0R4y1R-35" style="edgeStyle=orthogonalEdgeStyle;rounded=0;orthogonalLoop=1;jettySize=auto;html=1;exitX=0.855;exitY=0.145;exitDx=0;exitDy=0;exitPerimeter=0;entryX=-0.006;entryY=0.662;entryDx=0;entryDy=0;entryPerimeter=0;curved=1;" parent="1" source="_WOZBsmZgHntIw0R4y1R-29" target="_WOZBsmZgHntIw0R4y1R-28" edge="1">
          <mxGeometry relative="1" as="geometry">
            <mxPoint x="1290" y="210" as="targetPoint" />
          </mxGeometry>
        </mxCell>
        <mxCell id="_WOZBsmZgHntIw0R4y1R-37" value="Request to Chords" style="edgeLabel;html=1;align=center;verticalAlign=middle;resizable=0;points=[];" parent="_WOZBsmZgHntIw0R4y1R-35" vertex="1" connectable="0">
          <mxGeometry x="-0.5779" relative="1" as="geometry">
            <mxPoint x="28" y="-63" as="offset" />
          </mxGeometry>
        </mxCell>
        <mxCell id="_WOZBsmZgHntIw0R4y1R-45" value="Draw Chart" style="strokeWidth=2;html=1;shape=mxgraph.flowchart.start_2;whiteSpace=wrap;" parent="1" vertex="1">
          <mxGeometry x="1150" y="370" width="90" height="90" as="geometry" />
        </mxCell>
        <mxCell id="_WOZBsmZgHntIw0R4y1R-46" value="Draw TAB" style="strokeWidth=2;html=1;shape=mxgraph.flowchart.start_2;whiteSpace=wrap;" parent="1" vertex="1">
          <mxGeometry x="1150" y="620" width="90" height="90" as="geometry" />
        </mxCell>
        <mxCell id="_WOZBsmZgHntIw0R4y1R-47" style="edgeStyle=orthogonalEdgeStyle;rounded=0;orthogonalLoop=1;jettySize=auto;html=1;exitX=0;exitY=0.5;exitDx=0;exitDy=0;exitPerimeter=0;entryX=0.5;entryY=1;entryDx=0;entryDy=0;entryPerimeter=0;curved=1;" parent="1" source="_WOZBsmZgHntIw0R4y1R-22" target="_WOZBsmZgHntIw0R4y1R-16" edge="1">
          <mxGeometry relative="1" as="geometry" />
        </mxCell>
        <mxCell id="_WOZBsmZgHntIw0R4y1R-48" value="Submits Feedback from User" style="edgeLabel;html=1;align=center;verticalAlign=middle;resizable=0;points=[];" parent="_WOZBsmZgHntIw0R4y1R-47" vertex="1" connectable="0">
          <mxGeometry x="-0.333" relative="1" as="geometry">
            <mxPoint x="35" as="offset" />
          </mxGeometry>
        </mxCell>
        <mxCell id="_WOZBsmZgHntIw0R4y1R-49" style="edgeStyle=orthogonalEdgeStyle;rounded=0;orthogonalLoop=1;jettySize=auto;html=1;exitX=0.5;exitY=1;exitDx=0;exitDy=0;exitPerimeter=0;entryX=0.5;entryY=0;entryDx=0;entryDy=0;entryPerimeter=0;curved=1;" parent="1" source="_WOZBsmZgHntIw0R4y1R-29" target="_WOZBsmZgHntIw0R4y1R-22" edge="1">
          <mxGeometry relative="1" as="geometry" />
        </mxCell>
        <mxCell id="_WOZBsmZgHntIw0R4y1R-50" value="Randomly Selected Patterns" style="edgeLabel;html=1;align=center;verticalAlign=middle;resizable=0;points=[];" parent="_WOZBsmZgHntIw0R4y1R-49" vertex="1" connectable="0">
          <mxGeometry x="-0.0163" y="-1" relative="1" as="geometry">
            <mxPoint as="offset" />
          </mxGeometry>
        </mxCell>
        <mxCell id="_WOZBsmZgHntIw0R4y1R-52" style="edgeStyle=orthogonalEdgeStyle;rounded=0;orthogonalLoop=1;jettySize=auto;html=1;exitX=0.855;exitY=0.855;exitDx=0;exitDy=0;exitPerimeter=0;entryX=0.031;entryY=0.755;entryDx=0;entryDy=0;entryPerimeter=0;curved=1;" parent="1" source="_WOZBsmZgHntIw0R4y1R-29" target="_WOZBsmZgHntIw0R4y1R-27" edge="1">
          <mxGeometry relative="1" as="geometry" />
        </mxCell>
        <mxCell id="_WOZBsmZgHntIw0R4y1R-56" value="Request to Scale and Arpeggio" style="edgeLabel;html=1;align=center;verticalAlign=middle;resizable=0;points=[];" parent="_WOZBsmZgHntIw0R4y1R-52" vertex="1" connectable="0">
          <mxGeometry x="0.0569" y="3" relative="1" as="geometry">
            <mxPoint x="-3" y="-5" as="offset" />
          </mxGeometry>
        </mxCell>
        <mxCell id="_WOZBsmZgHntIw0R4y1R-53" style="edgeStyle=orthogonalEdgeStyle;rounded=0;orthogonalLoop=1;jettySize=auto;html=1;exitX=0;exitY=0.5;exitDx=0;exitDy=0;exitPerimeter=0;entryX=1;entryY=0.5;entryDx=0;entryDy=0;entryPerimeter=0;curved=1;" parent="1" source="_WOZBsmZgHntIw0R4y1R-27" edge="1">
          <mxGeometry relative="1" as="geometry">
            <mxPoint x="1309.98" y="273.20000000000005" as="sourcePoint" />
            <mxPoint x="888.68" y="245" as="targetPoint" />
            <Array as="points">
              <mxPoint x="1250" y="290" />
              <mxPoint x="1250" y="210" />
              <mxPoint x="1129" y="210" />
              <mxPoint x="1129" y="245" />
            </Array>
          </mxGeometry>
        </mxCell>
        <mxCell id="_WOZBsmZgHntIw0R4y1R-55" value="Scale and Arepeggio Data" style="edgeLabel;html=1;align=center;verticalAlign=middle;resizable=0;points=[];" parent="_WOZBsmZgHntIw0R4y1R-53" vertex="1" connectable="0">
          <mxGeometry x="-0.1668" y="-8" relative="1" as="geometry">
            <mxPoint x="24" y="38" as="offset" />
          </mxGeometry>
        </mxCell>
        <mxCell id="OubdhqmQod5nZqg8iPzs-1" value="" style="endArrow=classic;html=1;rounded=0;exitX=0.966;exitY=0.662;exitDx=0;exitDy=0;exitPerimeter=0;entryX=0.011;entryY=0.334;entryDx=0;entryDy=0;entryPerimeter=0;edgeStyle=orthogonalEdgeStyle;curved=1;" edge="1" parent="1" source="_WOZBsmZgHntIw0R4y1R-22" target="_WOZBsmZgHntIw0R4y1R-46">
          <mxGeometry width="50" height="50" relative="1" as="geometry">
            <mxPoint x="960" y="560" as="sourcePoint" />
            <mxPoint x="1100" y="530" as="targetPoint" />
          </mxGeometry>
        </mxCell>
        <mxCell id="OubdhqmQod5nZqg8iPzs-3" value="Scale Pattern" style="edgeLabel;html=1;align=center;verticalAlign=middle;resizable=0;points=[];" vertex="1" connectable="0" parent="OubdhqmQod5nZqg8iPzs-1">
          <mxGeometry x="-0.4852" y="1" relative="1" as="geometry">
            <mxPoint x="33" y="21" as="offset" />
          </mxGeometry>
        </mxCell>
        <mxCell id="OubdhqmQod5nZqg8iPzs-2" value="" style="endArrow=classic;html=1;rounded=0;exitX=0.005;exitY=0.413;exitDx=0;exitDy=0;exitPerimeter=0;edgeStyle=orthogonalEdgeStyle;curved=1;entryX=0.855;entryY=0.855;entryDx=0;entryDy=0;entryPerimeter=0;" edge="1" parent="1" source="_WOZBsmZgHntIw0R4y1R-46" target="_WOZBsmZgHntIw0R4y1R-22">
          <mxGeometry width="50" height="50" relative="1" as="geometry">
            <mxPoint x="930" y="500" as="sourcePoint" />
            <mxPoint x="890" y="520" as="targetPoint" />
          </mxGeometry>
        </mxCell>
        <mxCell id="OubdhqmQod5nZqg8iPzs-5" value="Text" style="edgeLabel;html=1;align=center;verticalAlign=middle;resizable=0;points=[];" vertex="1" connectable="0" parent="OubdhqmQod5nZqg8iPzs-2">
          <mxGeometry x="0.0365" relative="1" as="geometry">
            <mxPoint as="offset" />
          </mxGeometry>
        </mxCell>
        <mxCell id="OubdhqmQod5nZqg8iPzs-6" value="SVG Display" style="edgeLabel;html=1;align=center;verticalAlign=middle;resizable=0;points=[];" vertex="1" connectable="0" parent="OubdhqmQod5nZqg8iPzs-2">
          <mxGeometry x="0.0365" relative="1" as="geometry">
            <mxPoint as="offset" />
          </mxGeometry>
        </mxCell>
        <mxCell id="OubdhqmQod5nZqg8iPzs-7" value="" style="endArrow=classic;html=1;rounded=0;exitX=1.006;exitY=0.436;exitDx=0;exitDy=0;exitPerimeter=0;entryX=0.145;entryY=0.855;entryDx=0;entryDy=0;entryPerimeter=0;edgeStyle=orthogonalEdgeStyle;curved=1;" edge="1" parent="1" source="_WOZBsmZgHntIw0R4y1R-22" target="_WOZBsmZgHntIw0R4y1R-45">
          <mxGeometry width="50" height="50" relative="1" as="geometry">
            <mxPoint x="1010" y="460" as="sourcePoint" />
            <mxPoint x="1060" y="410" as="targetPoint" />
          </mxGeometry>
        </mxCell>
        <mxCell id="OubdhqmQod5nZqg8iPzs-8" value="Chord Pattern" style="edgeLabel;html=1;align=center;verticalAlign=middle;resizable=0;points=[];" vertex="1" connectable="0" parent="OubdhqmQod5nZqg8iPzs-7">
          <mxGeometry x="-0.1206" y="1" relative="1" as="geometry">
            <mxPoint x="10" as="offset" />
          </mxGeometry>
        </mxCell>
        <mxCell id="OubdhqmQod5nZqg8iPzs-9" value="" style="endArrow=classic;html=1;rounded=0;exitX=0;exitY=0.5;exitDx=0;exitDy=0;exitPerimeter=0;entryX=0.968;entryY=0.315;entryDx=0;entryDy=0;entryPerimeter=0;edgeStyle=orthogonalEdgeStyle;curved=1;" edge="1" parent="1" source="_WOZBsmZgHntIw0R4y1R-45" target="_WOZBsmZgHntIw0R4y1R-22">
          <mxGeometry width="50" height="50" relative="1" as="geometry">
            <mxPoint x="1000" y="450" as="sourcePoint" />
            <mxPoint x="1050" y="400" as="targetPoint" />
          </mxGeometry>
        </mxCell>
        <mxCell id="OubdhqmQod5nZqg8iPzs-10" value="SVG Display" style="edgeLabel;html=1;align=center;verticalAlign=middle;resizable=0;points=[];" vertex="1" connectable="0" parent="OubdhqmQod5nZqg8iPzs-9">
          <mxGeometry x="-0.1511" y="-2" relative="1" as="geometry">
            <mxPoint x="-14" as="offset" />
          </mxGeometry>
        </mxCell>
      </root>
    </mxGraphModel>
  </diagram>
</mxfile>
